<svg width="360" height="13" viewBox="0 0 360 13" fill="none" xmlns="http://www.w3.org/2000/svg">
<g clip-path="url(#clip0_2327_13703)">
<circle cx="-1.5" cy="6.5" r="4" fill="#F12B4C" stroke="#FF95A6"/>
<circle cx="14.5" cy="6.5" r="4" fill="#F12B4C" stroke="#FF95A6"/>
<circle cx="30.5" cy="6.5" r="4" fill="#F3C318" stroke="#FFE898"/>
<circle cx="46.5" cy="6.5" r="4" fill="#F12B4C" stroke="#FF95A6"/>
<circle cx="62.5" cy="6.5" r="4" fill="#F12B4C" stroke="#FF95A6"/>
<circle cx="78.5" cy="6.5" r="4" fill="url(#paint0_linear_2327_13703)" stroke="#AC9AFF"/>
<circle cx="94.5" cy="6.5" r="4" fill="url(#paint1_linear_2327_13703)" stroke="#AC9AFF"/>
<circle cx="110.5" cy="6.5" r="4" fill="#F12B4C" stroke="#FF95A6"/>
<circle cx="126.5" cy="6.5" r="4" fill="#F3C318" stroke="#FFE898"/>
<circle cx="142.5" cy="6.5" r="4" fill="url(#paint2_linear_2327_13703)" stroke="#AC9AFF"/>
<circle cx="158.5" cy="6.5" r="4" fill="url(#paint3_linear_2327_13703)" stroke="#AC9AFF"/>
<circle cx="174.5" cy="6.5" r="4" fill="#F12B4C" stroke="#FF95A6"/>
<circle cx="190.5" cy="6.5" r="4" fill="url(#paint4_linear_2327_13703)" stroke="#AC9AFF"/>
<circle cx="206.5" cy="6.5" r="4" fill="#F3C318" stroke="#FFE898"/>
<circle cx="222.5" cy="6.5" r="4" fill="url(#paint5_linear_2327_13703)" stroke="#AC9AFF"/>
<circle cx="238.5" cy="6.5" r="4" fill="url(#paint6_linear_2327_13703)" stroke="#AC9AFF"/>
<circle cx="254.5" cy="6.5" r="4" fill="#F12B4C" stroke="#FF95A6"/>
<circle cx="270.5" cy="6.5" r="4" fill="url(#paint7_linear_2327_13703)" stroke="#AC9AFF"/>
<circle cx="286.5" cy="6.5" r="4" fill="#F3C318" stroke="#FFE898"/>
<circle cx="302.5" cy="6.5" r="4" fill="#F12B4C" stroke="#FF95A6"/>
<circle cx="318.5" cy="6.5" r="4" fill="#F3C318" stroke="#FFE898"/>
<rect x="330" y="7" width="2" height="6" rx="1" fill="#1D242D"/>
<rect x="334" y="2" width="2" height="11" rx="1" fill="#1D242D"/>
<rect x="338" y="5" width="2" height="8" rx="1" fill="#1D242D"/>
<rect x="342" width="2" height="13" rx="1" fill="#1D242D"/>
</g>
<defs>
<linearGradient id="paint0_linear_2327_13703" x1="74.3354" y1="11" x2="81.7683" y2="10.5135" gradientUnits="userSpaceOnUse">
<stop stop-color="#9077FF"/>
<stop offset="1" stop-color="#5F43DC"/>
</linearGradient>
<linearGradient id="paint1_linear_2327_13703" x1="90.3354" y1="11" x2="97.7683" y2="10.5135" gradientUnits="userSpaceOnUse">
<stop stop-color="#9077FF"/>
<stop offset="1" stop-color="#5F43DC"/>
</linearGradient>
<linearGradient id="paint2_linear_2327_13703" x1="138.335" y1="11" x2="145.768" y2="10.5135" gradientUnits="userSpaceOnUse">
<stop stop-color="#9077FF"/>
<stop offset="1" stop-color="#5F43DC"/>
</linearGradient>
<linearGradient id="paint3_linear_2327_13703" x1="154.335" y1="11" x2="161.768" y2="10.5135" gradientUnits="userSpaceOnUse">
<stop stop-color="#9077FF"/>
<stop offset="1" stop-color="#5F43DC"/>
</linearGradient>
<linearGradient id="paint4_linear_2327_13703" x1="186.335" y1="11" x2="193.768" y2="10.5135" gradientUnits="userSpaceOnUse">
<stop stop-color="#9077FF"/>
<stop offset="1" stop-color="#5F43DC"/>
</linearGradient>
<linearGradient id="paint5_linear_2327_13703" x1="218.335" y1="11" x2="225.768" y2="10.5135" gradientUnits="userSpaceOnUse">
<stop stop-color="#9077FF"/>
<stop offset="1" stop-color="#5F43DC"/>
</linearGradient>
<linearGradient id="paint6_linear_2327_13703" x1="234.335" y1="11" x2="241.768" y2="10.5135" gradientUnits="userSpaceOnUse">
<stop stop-color="#9077FF"/>
<stop offset="1" stop-color="#5F43DC"/>
</linearGradient>
<linearGradient id="paint7_linear_2327_13703" x1="266.335" y1="11" x2="273.768" y2="10.5135" gradientUnits="userSpaceOnUse">
<stop stop-color="#9077FF"/>
<stop offset="1" stop-color="#5F43DC"/>
</linearGradient>
<clipPath id="clip0_2327_13703">
<rect width="360" height="13" fill="white"/>
</clipPath>
</defs>
</svg>
